<svg xmlns="http://www.w3.org/2000/svg" viewBox="0 0 200 200" width="32" height="32">
  <g transform="translate(100, 105)">
    <path fill="#0a0a14" d="
      M-62,20
      C-62,20 -58,-45 -30,-45
      C-10,-45 -2,-28 0,-18
      C2,-28 10,-45 30,-45
      C58,-45 62,20 62,20
      C62,20 58,28 48,28
      C38,28 42,-5 42,-5
      L42,8
      C42,8 42,28 28,28
      C14,28 8,12 0,0
      C-8,12 -14,28 -28,28
      C-42,28 -42,8 -42,8
      L-42,-5
      C-42,-5 -38,28 -48,28
      C-58,28 -62,20 -62,20
      Z
      M-22,-12
      C-22,-12 -18,-28 -12,-28
      C-6,-28 0,-12 0,-12
      C0,-12 6,-28 12,-28
      C18,-28 22,-12 22,-12
      L22,6
      C22,6 18,14 12,14
      C6,14 0,2 0,2
      C0,2 -6,14 -12,14
      C-18,14 -22,6 -22,6
      Z
    " fill-rule="evenodd"/>
  </g>
</svg>