<svg xmlns="http://www.w3.org/2000/svg" width="2048" height="2048" viewBox="0 0 2048 2048" fill="none">
  <path d="M 1148.00 1040.00 L 1144.00 1036.00 L 1140.00 1032.00 L 1136.00 1028.00 L 1136.00 1020.00 L 1132.00 1016.00 L 1128.00 1012.00 L 1124.00 1008.00 L 1120.00 1004.00 L 1116.00 1000.00 L 1112.00 996.00 L 1112.00 988.00 L 1108.00 984.00 L 1104.00 980.00 L 1104.00 972.00 L 1100.00 968.00 L 1096.00 964.00 L 1096.00 956.00 L 1092.00 952.00 L 1088.00 948.00 L 1084.00 944.00 L 1080.00 940.00 L 1080.00 932.00 L 1080.00 924.00 L 1076.00 920.00 L 1072.00 916.00 L 1072.00 908.00 L 1068.00 904.00 L 1064.00 900.00 L 1064.00 892.00 L 1064.00 884.00 L 1068.00 880.00 L 1072.00 876.00 L 1072.00 868.00 L 1072.00 860.00 L 1072.00 852.00 L 1076.00 848.00 L 1080.00 844.00 L 1080.00 836.00 L 1084.00 832.00 L 1088.00 828.00 L 1088.00 820.00 L 1092.00 816.00 L 1096.00 812.00 L 1100.00 808.00 L 1104.00 804.00 L 1104.00 796.00 L 1108.00 792.00 L 1112.00 788.00 L 1116.00 784.00 L 1120.00 780.00 L 1124.00 776.00 L 1128.00 772.00 L 1132.00 768.00 L 1136.00 764.00 L 1140.00 760.00 L 1144.00 756.00 L 1148.00 752.00 L 1152.00 748.00 L 1156.00 744.00 L 1160.00 740.00 L 1164.00 736.00 L 1168.00 732.00 L 1172.00 728.00 L 1176.00 724.00 L 1180.00 720.00 L 1188.00 720.00 L 1192.00 716.00 L 1196.00 712.00 L 1200.00 708.00 L 1204.00 704.00 L 1212.00 704.00 L 1216.00 700.00 L 1220.00 696.00 L 1224.00 692.00 L 1228.00 688.00 L 1236.00 688.00 L 1240.00 684.00 L 1244.00 680.00 L 1252.00 680.00 L 1256.00 676.00 L 1260.00 672.00 L 1268.00 672.00 L 1272.00 668.00 L 1276.00 664.00 L 1284.00 664.00 L 1288.00 660.00 L 1292.00 656.00 L 1300.00 656.00 L 1308.00 656.00 L 1312.00 652.00 L 1316.00 648.00 L 1324.00 648.00 L 1328.00 644.00 L 1332.00 640.00 L 1340.00 640.00 L 1348.00 640.00 L 1352.00 636.00 L 1356.00 632.00 L 1364.00 632.00 L 1372.00 632.00 L 1380.00 632.00 L 1384.00 628.00 L 1388.00 624.00 L 1396.00 624.00 L 1404.00 624.00 L 1412.00 624.00 L 1416.00 620.00 L 1420.00 616.00 L 1428.00 616.00 L 1436.00 616.00 L 1444.00 616.00 L 1452.00 616.00 L 1460.00 616.00 L 1468.00 616.00 L 1472.00 612.00 L 1476.00 608.00 L 1484.00 608.00 L 1492.00 608.00 L 1500.00 608.00 L 1508.00 608.00 L 1516.00 608.00 L 1524.00 608.00 L 1532.00 608.00 L 1540.00 608.00 L 1548.00 608.00 L 1556.00 608.00 L 1564.00 608.00 L 1572.00 608.00 L 1580.00 608.00 L 1588.00 608.00 L 1596.00 608.00 L 1604.00 608.00 L 1612.00 608.00 L 1620.00 608.00 L 1628.00 608.00 L 1636.00 608.00 L 1644.00 608.00 L 1652.00 608.00 L 1660.00 608.00 L 1664.00 612.00 L 1668.00 616.00 L 1676.00 616.00 L 1684.00 616.00 L 1692.00 616.00 L 1700.00 616.00 L 1708.00 616.00 L 1716.00 616.00 L 1720.00 620.00 L 1724.00 624.00 L 1732.00 624.00 L 1740.00 624.00 L 1748.00 624.00 L 1752.00 628.00 L 1756.00 632.00 L 1764.00 632.00 L 1772.00 632.00 L 1776.00 636.00 L 1780.00 640.00 L 1788.00 640.00 L 1792.00 644.00 L 1796.00 648.00 L 1804.00 648.00 L 1808.00 652.00 L 1804.00 656.00 L 1800.00 660.00 L 1796.00 664.00 L 1792.00 668.00 L 1788.00 672.00 L 1784.00 676.00 L 1784.00 684.00 L 1780.00 688.00 L 1776.00 692.00 L 1772.00 696.00 L 1768.00 700.00 L 1768.00 708.00 L 1764.00 712.00 L 1760.00 716.00 L 1756.00 720.00 L 1752.00 724.00 L 1752.00 732.00 L 1748.00 736.00 L 1744.00 740.00 L 1740.00 744.00 L 1732.00 744.00 L 1724.00 744.00 L 1716.00 744.00 L 1708.00 744.00 L 1700.00 744.00 L 1696.00 740.00 L 1692.00 736.00 L 1684.00 736.00 L 1676.00 736.00 L 1668.00 736.00 L 1660.00 736.00 L 1652.00 736.00 L 1644.00 736.00 L 1636.00 736.00 L 1628.00 736.00 L 1620.00 736.00 L 1612.00 736.00 L 1608.00 732.00 L 1604.00 728.00 L 1596.00 728.00 L 1588.00 728.00 L 1580.00 728.00 L 1572.00 728.00 L 1564.00 728.00 L 1560.00 732.00 L 1556.00 736.00 L 1548.00 736.00 L 1540.00 736.00 L 1532.00 736.00 L 1524.00 736.00 L 1516.00 736.00 L 1508.00 736.00 L 1500.00 736.00 L 1492.00 736.00 L 1484.00 736.00 L 1480.00 740.00 L 1476.00 744.00 L 1468.00 744.00 L 1460.00 744.00 L 1452.00 744.00 L 1444.00 744.00 L 1440.00 748.00 L 1436.00 752.00 L 1428.00 752.00 L 1420.00 752.00 L 1412.00 752.00 L 1408.00 756.00 L 1404.00 760.00 L 1396.00 760.00 L 1392.00 764.00 L 1388.00 768.00 L 1380.00 768.00 L 1372.00 768.00 L 1368.00 772.00 L 1364.00 776.00 L 1356.00 776.00 L 1352.00 780.00 L 1348.00 784.00 L 1340.00 784.00 L 1336.00 788.00 L 1332.00 792.00 L 1324.00 792.00 L 1320.00 796.00 L 1316.00 800.00 L 1308.00 800.00 L 1304.00 804.00 L 1300.00 808.00 L 1292.00 808.00 L 1288.00 812.00 L 1284.00 816.00 L 1280.00 820.00 L 1276.00 824.00 L 1272.00 828.00 L 1268.00 832.00 L 1260.00 832.00 L 1256.00 836.00 L 1252.00 840.00 L 1248.00 844.00 L 1244.00 848.00 L 1240.00 852.00 L 1236.00 856.00 L 1232.00 860.00 L 1228.00 864.00 L 1224.00 868.00 L 1220.00 872.00 L 1216.00 876.00 L 1212.00 880.00 L 1208.00 884.00 L 1204.00 888.00 L 1200.00 892.00 L 1200.00 900.00 L 1196.00 904.00 L 1192.00 908.00 L 1188.00 912.00 L 1184.00 916.00 L 1184.00 924.00 L 1180.00 928.00 L 1176.00 932.00 L 1176.00 940.00 L 1172.00 944.00 L 1168.00 948.00 L 1168.00 956.00 L 1164.00 960.00 L 1160.00 964.00 L 1160.00 972.00 L 1160.00 980.00 L 1160.00 988.00 L 1156.00 992.00 L 1152.00 996.00 L 1152.00 1004.00 L 1152.00 1012.00 L 1152.00 1020.00 L 1152.00 1028.00 L 1152.00 1036.00 L 1148.00 1040.00 Z M 1556.00 1416.00 L 1548.00 1416.00 L 1540.00 1416.00 L 1532.00 1416.00 L 1524.00 1416.00 L 1516.00 1416.00 L 1508.00 1416.00 L 1500.00 1416.00 L 1492.00 1416.00 L 1484.00 1416.00 L 1476.00 1416.00 L 1468.00 1416.00 L 1460.00 1416.00 L 1452.00 1416.00 L 1444.00 1416.00 L 1436.00 1416.00 L 1428.00 1416.00 L 1420.00 1416.00 L 1412.00 1416.00 L 1408.00 1412.00 L 1404.00 1408.00 L 1396.00 1408.00 L 1388.00 1408.00 L 1380.00 1408.00 L 1372.00 1408.00 L 1364.00 1408.00 L 1360.00 1404.00 L 1356.00 1400.00 L 1348.00 1400.00 L 1340.00 1400.00 L 1332.00 1400.00 L 1324.00 1400.00 L 1320.00 1396.00 L 1316.00 1392.00 L 1308.00 1392.00 L 1300.00 1392.00 L 1296.00 1388.00 L 1292.00 1384.00 L 1284.00 1384.00 L 1276.00 1384.00 L 1272.00 1380.00 L 1268.00 1376.00 L 1260.00 1376.00 L 1252.00 1376.00 L 1248.00 1372.00 L 1244.00 1368.00 L 1236.00 1368.00 L 1232.00 1364.00 L 1228.00 1360.00 L 1220.00 1360.00 L 1212.00 1360.00 L 1208.00 1356.00 L 1204.00 1352.00 L 1196.00 1352.00 L 1192.00 1348.00 L 1188.00 1344.00 L 1184.00 1340.00 L 1180.00 1336.00 L 1172.00 1336.00 L 1168.00 1332.00 L 1164.00 1328.00 L 1160.00 1324.00 L 1156.00 1320.00 L 1148.00 1320.00 L 1144.00 1316.00 L 1140.00 1312.00 L 1136.00 1308.00 L 1132.00 1304.00 L 1124.00 1304.00 L 1120.00 1300.00 L 1116.00 1296.00 L 1112.00 1292.00 L 1108.00 1288.00 L 1104.00 1284.00 L 1100.00 1280.00 L 1096.00 1276.00 L 1092.00 1272.00 L 1084.00 1272.00 L 1080.00 1268.00 L 1076.00 1264.00 L 1072.00 1260.00 L 1068.00 1256.00 L 1064.00 1252.00 L 1060.00 1248.00 L 1056.00 1244.00 L 1052.00 1240.00 L 1048.00 1236.00 L 1044.00 1232.00 L 1040.00 1228.00 L 1036.00 1224.00 L 1032.00 1220.00 L 1028.00 1216.00 L 1024.00 1212.00 L 1020.00 1208.00 L 1016.00 1204.00 L 1016.00 1196.00 L 1012.00 1192.00 L 1008.00 1188.00 L 1004.00 1184.00 L 1000.00 1180.00 L 996.00 1176.00 L 992.00 1172.00 L 988.00 1168.00 L 984.00 1164.00 L 984.00 1156.00 L 980.00 1152.00 L 976.00 1148.00 L 972.00 1144.00 L 968.00 1140.00 L 968.00 1132.00 L 964.00 1128.00 L 960.00 1124.00 L 956.00 1120.00 L 952.00 1116.00 L 948.00 1112.00 L 944.00 1108.00 L 944.00 1100.00 L 940.00 1096.00 L 936.00 1092.00 L 936.00 1084.00 L 932.00 1080.00 L 928.00 1076.00 L 924.00 1072.00 L 920.00 1068.00 L 920.00 1060.00 L 916.00 1056.00 L 912.00 1052.00 L 912.00 1044.00 L 908.00 1040.00 L 904.00 1036.00 L 904.00 1028.00 L 900.00 1024.00 L 896.00 1020.00 L 896.00 1012.00 L 892.00 1008.00 L 888.00 1004.00 L 888.00 996.00 L 884.00 992.00 L 880.00 988.00 L 880.00 980.00 L 876.00 976.00 L 872.00 972.00 L 872.00 964.00 L 868.00 960.00 L 864.00 956.00 L 864.00 948.00 L 860.00 944.00 L 856.00 940.00 L 856.00 932.00 L 852.00 928.00 L 848.00 924.00 L 848.00 916.00 L 848.00 908.00 L 844.00 904.00 L 840.00 900.00 L 840.00 892.00 L 836.00 888.00 L 832.00 884.00 L 832.00 876.00 L 832.00 868.00 L 828.00 864.00 L 824.00 860.00 L 824.00 852.00 L 824.00 844.00 L 820.00 840.00 L 816.00 836.00 L 816.00 828.00 L 816.00 820.00 L 812.00 816.00 L 808.00 812.00 L 808.00 804.00 L 804.00 800.00 L 800.00 796.00 L 800.00 788.00 L 800.00 780.00 L 800.00 772.00 L 796.00 768.00 L 792.00 764.00 L 792.00 756.00 L 792.00 748.00 L 788.00 744.00 L 784.00 748.00 L 784.00 756.00 L 780.00 760.00 L 776.00 764.00 L 776.00 772.00 L 776.00 780.00 L 772.00 784.00 L 768.00 788.00 L 768.00 796.00 L 764.00 800.00 L 760.00 804.00 L 760.00 812.00 L 760.00 820.00 L 756.00 824.00 L 752.00 828.00 L 752.00 836.00 L 748.00 840.00 L 744.00 844.00 L 740.00 848.00 L 736.00 852.00 L 736.00 860.00 L 732.00 864.00 L 728.00 868.00 L 728.00 876.00 L 724.00 880.00 L 720.00 884.00 L 720.00 892.00 L 716.00 896.00 L 712.00 900.00 L 712.00 908.00 L 708.00 912.00 L 704.00 916.00 L 704.00 924.00 L 700.00 928.00 L 696.00 932.00 L 696.00 940.00 L 692.00 944.00 L 688.00 948.00 L 684.00 952.00 L 680.00 956.00 L 680.00 964.00 L 676.00 968.00 L 672.00 972.00 L 672.00 980.00 L 668.00 984.00 L 664.00 988.00 L 660.00 992.00 L 656.00 996.00 L 656.00 1004.00 L 652.00 1008.00 L 648.00 1012.00 L 648.00 1020.00 L 644.00 1024.00 L 640.00 1028.00 L 636.00 1032.00 L 632.00 1036.00 L 632.00 1044.00 L 628.00 1048.00 L 624.00 1052.00 L 620.00 1056.00 L 616.00 1060.00 L 616.00 1068.00 L 612.00 1072.00 L 608.00 1076.00 L 604.00 1080.00 L 600.00 1084.00 L 600.00 1092.00 L 596.00 1096.00 L 592.00 1100.00 L 588.00 1104.00 L 584.00 1108.00 L 584.00 1116.00 L 580.00 1120.00 L 576.00 1124.00 L 572.00 1128.00 L 568.00 1132.00 L 564.00 1136.00 L 560.00 1140.00 L 560.00 1148.00 L 556.00 1152.00 L 552.00 1156.00 L 548.00 1160.00 L 544.00 1164.00 L 544.00 1172.00 L 540.00 1176.00 L 536.00 1180.00 L 532.00 1184.00 L 528.00 1188.00 L 524.00 1192.00 L 520.00 1196.00 L 516.00 1200.00 L 512.00 1204.00 L 508.00 1208.00 L 504.00 1212.00 L 508.00 1216.00 L 516.00 1216.00 L 520.00 1212.00 L 524.00 1208.00 L 532.00 1208.00 L 540.00 1208.00 L 548.00 1208.00 L 552.00 1204.00 L 556.00 1200.00 L 564.00 1200.00 L 572.00 1200.00 L 580.00 1200.00 L 584.00 1196.00 L 588.00 1192.00 L 596.00 1192.00 L 604.00 1192.00 L 608.00 1188.00 L 612.00 1184.00 L 620.00 1184.00 L 628.00 1184.00 L 632.00 1180.00 L 636.00 1176.00 L 644.00 1176.00 L 648.00 1172.00 L 652.00 1168.00 L 660.00 1168.00 L 664.00 1164.00 L 668.00 1160.00 L 676.00 1160.00 L 680.00 1156.00 L 684.00 1152.00 L 692.00 1152.00 L 696.00 1148.00 L 700.00 1144.00 L 708.00 1144.00 L 712.00 1140.00 L 716.00 1136.00 L 720.00 1132.00 L 724.00 1128.00 L 732.00 1128.00 L 736.00 1124.00 L 740.00 1120.00 L 748.00 1120.00 L 752.00 1116.00 L 756.00 1112.00 L 760.00 1108.00 L 764.00 1104.00 L 772.00 1104.00 L 776.00 1100.00 L 780.00 1096.00 L 784.00 1092.00 L 788.00 1088.00 L 796.00 1088.00 L 800.00 1084.00 L 804.00 1080.00 L 808.00 1076.00 L 812.00 1072.00 L 816.00 1068.00 L 820.00 1064.00 L 824.00 1060.00 L 828.00 1056.00 L 832.00 1052.00 L 836.00 1048.00 L 840.00 1044.00 L 844.00 1040.00 L 852.00 1040.00 L 856.00 1036.00 L 860.00 1032.00 L 864.00 1036.00 L 864.00 1044.00 L 868.00 1048.00 L 872.00 1052.00 L 872.00 1060.00 L 876.00 1064.00 L 880.00 1068.00 L 884.00 1072.00 L 888.00 1076.00 L 888.00 1084.00 L 892.00 1088.00 L 896.00 1092.00 L 900.00 1096.00 L 904.00 1100.00 L 904.00 1108.00 L 908.00 1112.00 L 912.00 1116.00 L 916.00 1120.00 L 920.00 1124.00 L 920.00 1132.00 L 920.00 1140.00 L 916.00 1144.00 L 912.00 1148.00 L 908.00 1152.00 L 900.00 1152.00 L 896.00 1156.00 L 892.00 1160.00 L 888.00 1164.00 L 884.00 1168.00 L 880.00 1172.00 L 876.00 1176.00 L 872.00 1180.00 L 868.00 1184.00 L 864.00 1188.00 L 860.00 1192.00 L 852.00 1192.00 L 848.00 1196.00 L 844.00 1200.00 L 840.00 1204.00 L 836.00 1208.00 L 828.00 1208.00 L 824.00 1212.00 L 820.00 1216.00 L 816.00 1220.00 L 812.00 1224.00 L 804.00 1224.00 L 800.00 1228.00 L 796.00 1232.00 L 792.00 1236.00 L 788.00 1240.00 L 780.00 1240.00 L 776.00 1244.00 L 772.00 1248.00 L 764.00 1248.00 L 760.00 1252.00 L 756.00 1256.00 L 748.00 1256.00 L 744.00 1260.00 L 740.00 1264.00 L 732.00 1264.00 L 728.00 1268.00 L 724.00 1272.00 L 716.00 1272.00 L 712.00 1276.00 L 708.00 1280.00 L 700.00 1280.00 L 696.00 1284.00 L 692.00 1288.00 L 684.00 1288.00 L 680.00 1292.00 L 676.00 1296.00 L 668.00 1296.00 L 664.00 1300.00 L 660.00 1304.00 L 652.00 1304.00 L 648.00 1308.00 L 644.00 1312.00 L 636.00 1312.00 L 628.00 1312.00 L 624.00 1316.00 L 620.00 1320.00 L 612.00 1320.00 L 608.00 1324.00 L 604.00 1328.00 L 596.00 1328.00 L 588.00 1328.00 L 584.00 1332.00 L 580.00 1336.00 L 572.00 1336.00 L 564.00 1336.00 L 556.00 1336.00 L 552.00 1340.00 L 548.00 1344.00 L 540.00 1344.00 L 532.00 1344.00 L 528.00 1348.00 L 524.00 1352.00 L 516.00 1352.00 L 508.00 1352.00 L 500.00 1352.00 L 496.00 1356.00 L 492.00 1360.00 L 484.00 1360.00 L 476.00 1360.00 L 468.00 1360.00 L 460.00 1360.00 L 452.00 1360.00 L 448.00 1364.00 L 444.00 1368.00 L 436.00 1368.00 L 428.00 1368.00 L 420.00 1368.00 L 412.00 1368.00 L 404.00 1368.00 L 400.00 1372.00 L 396.00 1376.00 L 388.00 1376.00 L 380.00 1376.00 L 372.00 1376.00 L 364.00 1376.00 L 356.00 1376.00 L 348.00 1376.00 L 340.00 1376.00 L 332.00 1376.00 L 324.00 1376.00 L 316.00 1376.00 L 308.00 1376.00 L 300.00 1376.00 L 292.00 1376.00 L 284.00 1376.00 L 276.00 1376.00 L 268.00 1376.00 L 260.00 1376.00 L 252.00 1376.00 L 244.00 1376.00 L 236.00 1376.00 L 228.00 1376.00 L 220.00 1376.00 L 212.00 1376.00 L 204.00 1376.00 L 196.00 1376.00 L 192.00 1372.00 L 196.00 1368.00 L 200.00 1364.00 L 204.00 1360.00 L 208.00 1356.00 L 212.00 1352.00 L 216.00 1348.00 L 220.00 1344.00 L 228.00 1344.00 L 232.00 1340.00 L 236.00 1336.00 L 240.00 1332.00 L 244.00 1328.00 L 248.00 1324.00 L 252.00 1320.00 L 256.00 1316.00 L 260.00 1312.00 L 264.00 1308.00 L 268.00 1304.00 L 272.00 1300.00 L 276.00 1296.00 L 280.00 1292.00 L 284.00 1288.00 L 288.00 1284.00 L 292.00 1280.00 L 296.00 1276.00 L 300.00 1272.00 L 304.00 1268.00 L 308.00 1264.00 L 312.00 1260.00 L 316.00 1256.00 L 320.00 1252.00 L 324.00 1248.00 L 328.00 1244.00 L 332.00 1240.00 L 336.00 1236.00 L 340.00 1232.00 L 344.00 1228.00 L 344.00 1220.00 L 348.00 1216.00 L 352.00 1212.00 L 356.00 1208.00 L 360.00 1204.00 L 364.00 1200.00 L 368.00 1196.00 L 372.00 1192.00 L 376.00 1188.00 L 380.00 1184.00 L 384.00 1180.00 L 384.00 1172.00 L 388.00 1168.00 L 392.00 1164.00 L 396.00 1160.00 L 400.00 1156.00 L 404.00 1152.00 L 408.00 1148.00 L 412.00 1144.00 L 416.00 1140.00 L 416.00 1132.00 L 420.00 1128.00 L 424.00 1124.00 L 428.00 1120.00 L 432.00 1116.00 L 436.00 1112.00 L 440.00 1108.00 L 440.00 1100.00 L 444.00 1096.00 L 448.00 1092.00 L 452.00 1088.00 L 456.00 1084.00 L 456.00 1076.00 L 460.00 1072.00 L 464.00 1068.00 L 468.00 1064.00 L 472.00 1060.00 L 472.00 1052.00 L 476.00 1048.00 L 480.00 1044.00 L 484.00 1040.00 L 488.00 1036.00 L 488.00 1028.00 L 492.00 1024.00 L 496.00 1020.00 L 500.00 1016.00 L 504.00 1012.00 L 504.00 1004.00 L 508.00 1000.00 L 512.00 996.00 L 512.00 988.00 L 516.00 984.00 L 520.00 980.00 L 524.00 976.00 L 528.00 972.00 L 528.00 964.00 L 532.00 960.00 L 536.00 956.00 L 536.00 948.00 L 540.00 944.00 L 544.00 940.00 L 548.00 936.00 L 552.00 932.00 L 552.00 924.00 L 556.00 920.00 L 560.00 916.00 L 560.00 908.00 L 564.00 904.00 L 568.00 900.00 L 568.00 892.00 L 572.00 888.00 L 576.00 884.00 L 580.00 880.00 L 584.00 876.00 L 584.00 868.00 L 588.00 864.00 L 592.00 860.00 L 592.00 852.00 L 596.00 848.00 L 600.00 844.00 L 600.00 836.00 L 604.00 832.00 L 608.00 828.00 L 608.00 820.00 L 612.00 816.00 L 616.00 812.00 L 616.00 804.00 L 620.00 800.00 L 624.00 796.00 L 624.00 788.00 L 628.00 784.00 L 632.00 780.00 L 632.00 772.00 L 636.00 768.00 L 640.00 764.00 L 640.00 756.00 L 644.00 752.00 L 648.00 748.00 L 648.00 740.00 L 652.00 736.00 L 656.00 732.00 L 656.00 724.00 L 660.00 720.00 L 664.00 716.00 L 664.00 708.00 L 668.00 704.00 L 672.00 700.00 L 672.00 692.00 L 676.00 688.00 L 680.00 684.00 L 680.00 676.00 L 684.00 672.00 L 688.00 668.00 L 688.00 660.00 L 692.00 656.00 L 696.00 652.00 L 696.00 644.00 L 700.00 640.00 L 704.00 636.00 L 708.00 632.00 L 712.00 628.00 L 716.00 624.00 L 724.00 624.00 L 732.00 624.00 L 740.00 624.00 L 748.00 624.00 L 756.00 624.00 L 764.00 624.00 L 772.00 624.00 L 780.00 624.00 L 788.00 624.00 L 796.00 624.00 L 804.00 624.00 L 812.00 624.00 L 820.00 624.00 L 828.00 624.00 L 836.00 624.00 L 844.00 624.00 L 852.00 624.00 L 860.00 624.00 L 868.00 624.00 L 876.00 624.00 L 884.00 624.00 L 892.00 624.00 L 896.00 628.00 L 900.00 632.00 L 904.00 636.00 L 908.00 640.00 L 912.00 644.00 L 916.00 648.00 L 920.00 652.00 L 920.00 660.00 L 924.00 664.00 L 928.00 668.00 L 928.00 676.00 L 928.00 684.00 L 932.00 688.00 L 936.00 692.00 L 936.00 700.00 L 940.00 704.00 L 944.00 708.00 L 944.00 716.00 L 944.00 724.00 L 948.00 728.00 L 952.00 732.00 L 952.00 740.00 L 956.00 744.00 L 960.00 748.00 L 960.00 756.00 L 960.00 764.00 L 964.00 768.00 L 968.00 772.00 L 968.00 780.00 L 972.00 784.00 L 976.00 788.00 L 976.00 796.00 L 976.00 804.00 L 980.00 808.00 L 984.00 812.00 L 984.00 820.00 L 988.00 824.00 L 992.00 828.00 L 992.00 836.00 L 992.00 844.00 L 996.00 848.00 L 1000.00 852.00 L 1000.00 860.00 L 1004.00 864.00 L 1008.00 868.00 L 1008.00 876.00 L 1012.00 880.00 L 1016.00 884.00 L 1016.00 892.00 L 1020.00 896.00 L 1024.00 900.00 L 1024.00 908.00 L 1028.00 912.00 L 1032.00 916.00 L 1032.00 924.00 L 1036.00 928.00 L 1040.00 932.00 L 1040.00 940.00 L 1044.00 944.00 L 1048.00 948.00 L 1048.00 956.00 L 1052.00 960.00 L 1056.00 964.00 L 1056.00 972.00 L 1060.00 976.00 L 1064.00 980.00 L 1068.00 984.00 L 1072.00 988.00 L 1072.00 996.00 L 1076.00 1000.00 L 1080.00 1004.00 L 1080.00 1012.00 L 1084.00 1016.00 L 1088.00 1020.00 L 1092.00 1024.00 L 1096.00 1028.00 L 1096.00 1036.00 L 1100.00 1040.00 L 1104.00 1044.00 L 1108.00 1048.00 L 1112.00 1052.00 L 1112.00 1060.00 L 1116.00 1064.00 L 1120.00 1068.00 L 1124.00 1072.00 L 1128.00 1076.00 L 1128.00 1084.00 L 1132.00 1088.00 L 1136.00 1092.00 L 1140.00 1096.00 L 1144.00 1100.00 L 1148.00 1104.00 L 1152.00 1108.00 L 1156.00 1112.00 L 1160.00 1116.00 L 1160.00 1124.00 L 1164.00 1128.00 L 1168.00 1132.00 L 1172.00 1136.00 L 1176.00 1140.00 L 1180.00 1144.00 L 1184.00 1148.00 L 1188.00 1152.00 L 1192.00 1156.00 L 1196.00 1160.00 L 1200.00 1164.00 L 1204.00 1168.00 L 1208.00 1172.00 L 1212.00 1176.00 L 1216.00 1180.00 L 1220.00 1184.00 L 1228.00 1184.00 L 1232.00 1188.00 L 1236.00 1192.00 L 1240.00 1196.00 L 1244.00 1200.00 L 1248.00 1204.00 L 1252.00 1208.00 L 1256.00 1212.00 L 1260.00 1216.00 L 1268.00 1216.00 L 1272.00 1220.00 L 1276.00 1224.00 L 1280.00 1228.00 L 1284.00 1232.00 L 1292.00 1232.00 L 1296.00 1236.00 L 1300.00 1240.00 L 1304.00 1244.00 L 1308.00 1248.00 L 1316.00 1248.00 L 1320.00 1252.00 L 1324.00 1256.00 L 1332.00 1256.00 L 1336.00 1260.00 L 1340.00 1264.00 L 1348.00 1264.00 L 1352.00 1268.00 L 1356.00 1272.00 L 1364.00 1272.00 L 1372.00 1272.00 L 1376.00 1276.00 L 1380.00 1280.00 L 1388.00 1280.00 L 1392.00 1284.00 L 1396.00 1288.00 L 1404.00 1288.00 L 1412.00 1288.00 L 1420.00 1288.00 L 1424.00 1292.00 L 1428.00 1296.00 L 1436.00 1296.00 L 1444.00 1296.00 L 1452.00 1296.00 L 1460.00 1296.00 L 1468.00 1296.00 L 1472.00 1300.00 L 1476.00 1304.00 L 1484.00 1304.00 L 1492.00 1304.00 L 1500.00 1304.00 L 1508.00 1304.00 L 1516.00 1304.00 L 1524.00 1304.00 L 1532.00 1304.00 L 1540.00 1304.00 L 1548.00 1304.00 L 1556.00 1304.00 L 1564.00 1304.00 L 1572.00 1304.00 L 1580.00 1304.00 L 1588.00 1304.00 L 1592.00 1300.00 L 1596.00 1296.00 L 1604.00 1296.00 L 1612.00 1296.00 L 1620.00 1296.00 L 1628.00 1296.00 L 1632.00 1292.00 L 1636.00 1288.00 L 1644.00 1288.00 L 1652.00 1288.00 L 1656.00 1284.00 L 1660.00 1280.00 L 1668.00 1280.00 L 1672.00 1276.00 L 1672.00 1268.00 L 1672.00 1260.00 L 1672.00 1252.00 L 1672.00 1244.00 L 1672.00 1236.00 L 1672.00 1228.00 L 1672.00 1220.00 L 1672.00 1212.00 L 1672.00 1204.00 L 1672.00 1196.00 L 1672.00 1188.00 L 1672.00 1180.00 L 1676.00 1176.00 L 1680.00 1172.00 L 1680.00 1164.00 L 1680.00 1156.00 L 1680.00 1148.00 L 1680.00 1140.00 L 1680.00 1132.00 L 1680.00 1124.00 L 1680.00 1116.00 L 1680.00 1108.00 L 1680.00 1100.00 L 1680.00 1092.00 L 1680.00 1084.00 L 1676.00 1080.00 L 1672.00 1076.00 L 1668.00 1072.00 L 1664.00 1068.00 L 1660.00 1064.00 L 1652.00 1064.00 L 1644.00 1064.00 L 1636.00 1064.00 L 1628.00 1064.00 L 1620.00 1064.00 L 1612.00 1064.00 L 1604.00 1064.00 L 1596.00 1064.00 L 1588.00 1064.00 L 1580.00 1064.00 L 1572.00 1064.00 L 1564.00 1064.00 L 1556.00 1064.00 L 1548.00 1064.00 L 1540.00 1064.00 L 1532.00 1064.00 L 1524.00 1064.00 L 1516.00 1064.00 L 1508.00 1064.00 L 1500.00 1064.00 L 1492.00 1064.00 L 1484.00 1064.00 L 1476.00 1064.00 L 1468.00 1064.00 L 1460.00 1064.00 L 1452.00 1064.00 L 1444.00 1064.00 L 1436.00 1064.00 L 1428.00 1064.00 L 1420.00 1064.00 L 1412.00 1064.00 L 1404.00 1064.00 L 1396.00 1064.00 L 1388.00 1064.00 L 1380.00 1064.00 L 1376.00 1060.00 L 1380.00 1056.00 L 1384.00 1052.00 L 1388.00 1048.00 L 1392.00 1044.00 L 1396.00 1040.00 L 1404.00 1040.00 L 1408.00 1036.00 L 1412.00 1032.00 L 1416.00 1028.00 L 1420.00 1024.00 L 1424.00 1020.00 L 1428.00 1016.00 L 1436.00 1016.00 L 1440.00 1012.00 L 1444.00 1008.00 L 1448.00 1004.00 L 1452.00 1000.00 L 1456.00 996.00 L 1460.00 992.00 L 1468.00 992.00 L 1472.00 988.00 L 1476.00 984.00 L 1480.00 980.00 L 1484.00 976.00 L 1488.00 972.00 L 1492.00 968.00 L 1500.00 968.00 L 1504.00 964.00 L 1508.00 960.00 L 1512.00 956.00 L 1516.00 952.00 L 1524.00 952.00 L 1528.00 948.00 L 1532.00 944.00 L 1540.00 944.00 L 1544.00 940.00 L 1548.00 936.00 L 1556.00 936.00 L 1564.00 936.00 L 1572.00 936.00 L 1580.00 936.00 L 1588.00 936.00 L 1596.00 936.00 L 1604.00 936.00 L 1612.00 936.00 L 1620.00 936.00 L 1628.00 936.00 L 1636.00 936.00 L 1644.00 936.00 L 1652.00 936.00 L 1660.00 936.00 L 1668.00 936.00 L 1676.00 936.00 L 1684.00 936.00 L 1692.00 936.00 L 1700.00 936.00 L 1708.00 936.00 L 1716.00 936.00 L 1724.00 936.00 L 1732.00 936.00 L 1740.00 936.00 L 1748.00 936.00 L 1756.00 936.00 L 1764.00 936.00 L 1772.00 936.00 L 1780.00 936.00 L 1788.00 936.00 L 1796.00 936.00 L 1804.00 936.00 L 1812.00 936.00 L 1820.00 936.00 L 1828.00 936.00 L 1832.00 940.00 L 1832.00 948.00 L 1832.00 956.00 L 1832.00 964.00 L 1832.00 972.00 L 1832.00 980.00 L 1832.00 988.00 L 1832.00 996.00 L 1832.00 1004.00 L 1832.00 1012.00 L 1832.00 1020.00 L 1832.00 1028.00 L 1832.00 1036.00 L 1836.00 1040.00 L 1840.00 1044.00 L 1840.00 1052.00 L 1840.00 1060.00 L 1840.00 1068.00 L 1840.00 1076.00 L 1840.00 1084.00 L 1840.00 1092.00 L 1840.00 1100.00 L 1840.00 1108.00 L 1836.00 1112.00 L 1832.00 1116.00 L 1832.00 1124.00 L 1832.00 1132.00 L 1832.00 1140.00 L 1832.00 1148.00 L 1832.00 1156.00 L 1832.00 1164.00 L 1832.00 1172.00 L 1832.00 1180.00 L 1832.00 1188.00 L 1832.00 1196.00 L 1832.00 1204.00 L 1832.00 1212.00 L 1832.00 1220.00 L 1832.00 1228.00 L 1832.00 1236.00 L 1832.00 1244.00 L 1832.00 1252.00 L 1832.00 1260.00 L 1832.00 1268.00 L 1832.00 1276.00 L 1832.00 1284.00 L 1832.00 1292.00 L 1832.00 1300.00 L 1832.00 1308.00 L 1828.00 1312.00 L 1824.00 1316.00 L 1824.00 1324.00 L 1820.00 1328.00 L 1812.00 1328.00 L 1808.00 1332.00 L 1804.00 1336.00 L 1800.00 1340.00 L 1796.00 1344.00 L 1788.00 1344.00 L 1784.00 1348.00 L 1780.00 1352.00 L 1772.00 1352.00 L 1768.00 1356.00 L 1764.00 1360.00 L 1756.00 1360.00 L 1752.00 1364.00 L 1748.00 1368.00 L 1740.00 1368.00 L 1732.00 1368.00 L 1728.00 1372.00 L 1724.00 1376.00 L 1716.00 1376.00 L 1708.00 1376.00 L 1704.00 1380.00 L 1700.00 1384.00 L 1692.00 1384.00 L 1684.00 1384.00 L 1680.00 1388.00 L 1676.00 1392.00 L 1668.00 1392.00 L 1660.00 1392.00 L 1652.00 1392.00 L 1648.00 1396.00 L 1644.00 1400.00 L 1636.00 1400.00 L 1628.00 1400.00 L 1620.00 1400.00 L 1612.00 1400.00 L 1608.00 1404.00 L 1604.00 1408.00 L 1596.00 1408.00 L 1588.00 1408.00 L 1580.00 1408.00 L 1572.00 1408.00 L 1564.00 1408.00 L 1560.00 1412.00 L 1556.00 1416.00 Z" fill="#0B0F1D" fill-rule="evenodd"/>
</svg>
